<svg width="32" height="32" viewBox="0 0 32 32" fill="none" xmlns="http://www.w3.org/2000/svg">
  <!-- QA Intelligence favicon - Elegant circular design -->
  <defs>
    <!-- Premium circular gradient -->
    <radialGradient id="primaryRadial" cx="50%" cy="50%" r="60%">
      <stop offset="0%" style="stop-color:#8b5cf6;stop-opacity:1" />
      <stop offset="50%" style="stop-color:#6366f1;stop-opacity:1" />
      <stop offset="100%" style="stop-color:#4f46e5;stop-opacity:1" />
    </radialGradient>
    
    <!-- Intelligence glow -->
    <radialGradient id="glowGrad" cx="50%" cy="50%" r="70%">
      <stop offset="0%" style="stop-color:#10b981;stop-opacity:0.8" />
      <stop offset="100%" style="stop-color:#06d6a0;stop-opacity:0.2" />
    </radialGradient>
    
    <!-- Quality accent -->
    <linearGradient id="accentGrad" x1="0%" y1="0%" x2="100%" y2="100%">
      <stop offset="0%" style="stop-color:#fbbf24;stop-opacity:1" />
      <stop offset="100%" style="stop-color:#f59e0b;stop-opacity:1" />
    </linearGradient>

    <!-- Soft glow filter -->
    <filter id="glow">
      <feGaussianBlur stdDeviation="1" result="coloredBlur"/>
      <feMerge> 
        <feMergeNode in="coloredBlur"/>
        <feMergeNode in="SourceGraphic"/>
      </feMerge>
    </filter>
  </defs>
  
  <!-- Main circular background -->
  <circle cx="16" cy="16" r="16" fill="url(#primaryRadial)" filter="url(#glow)"/>
  
  <!-- Inner glow circle -->
  <circle cx="16" cy="16" r="14" fill="url(#glowGrad)" opacity="0.3"/>
  
  <!-- Stylized brain/neural network -->
  <path d="M10 14c0-2.5 1.5-4 4-4 1 0 1.8 0.4 2.5 1 0.7-0.6 1.5-1 2.5-1 2.5 0 4 1.5 4 4 0 0.8-0.3 1.5-0.8 2.2 0.5 0.7 0.8 1.4 0.8 2.3 0 2.5-1.5 4-4 4-1 0-1.8-0.4-2.5-1-0.7 0.6-1.5 1-2.5 1-2.5 0-4-1.5-4-4 0-0.9 0.3-1.6 0.8-2.3-0.5-0.7-0.8-1.4-0.8-2.2z" 
        fill="none" stroke="rgba(255,255,255,0.8)" stroke-width="1.5"/>
  
  <!-- Neural connections as elegant curves -->
  <path d="M12.5 13.5 Q16 15 19.5 13.5" stroke="rgba(255,255,255,0.6)" stroke-width="1" fill="none"/>
  <path d="M12.5 16 Q16 17.5 19.5 16" stroke="rgba(255,255,255,0.6)" stroke-width="1" fill="none"/>
  <path d="M12.5 18.5 Q16 20 19.5 18.5" stroke="rgba(255,255,255,0.6)" stroke-width="1" fill="none"/>
  
  <!-- Central Q with elegant styling -->
  <circle cx="16" cy="16" r="5" fill="rgba(255,255,255,0.1)" stroke="rgba(255,255,255,0.3)" stroke-width="1"/>
  <text x="16" y="19.5" text-anchor="middle" font-family="system-ui, -apple-system, sans-serif" 
        font-size="9" font-weight="600" fill="white" opacity="0.95">Q</text>
  
  <!-- Orbital quality indicators -->
  <circle cx="16" cy="6" r="1.5" fill="url(#accentGrad)" opacity="0.9">
    <animateTransform attributeName="transform" type="rotate" values="0 16 16;360 16 16" dur="20s" repeatCount="indefinite"/>
  </circle>
  <circle cx="26" cy="16" r="1.5" fill="rgba(16, 185, 129, 0.9)" opacity="0.9">
    <animateTransform attributeName="transform" type="rotate" values="90 16 16;450 16 16" dur="20s" repeatCount="indefinite"/>
  </circle>
  <circle cx="16" cy="26" r="1.5" fill="url(#accentGrad)" opacity="0.9">
    <animateTransform attributeName="transform" type="rotate" values="180 16 16;540 16 16" dur="20s" repeatCount="indefinite"/>
  </circle>
  <circle cx="6" cy="16" r="1.5" fill="rgba(16, 185, 129, 0.9)" opacity="0.9">
    <animateTransform attributeName="transform" type="rotate" values="270 16 16;630 16 16" dur="20s" repeatCount="indefinite"/>
  </circle>
  
  <!-- Subtle check marks in orbiting indicators -->
  <g opacity="0.8">
    <path d="M15 5 L16 6 L17.5 4.5" stroke="white" stroke-width="0.8" fill="none">
      <animateTransform attributeName="transform" type="rotate" values="0 16 16;360 16 16" dur="20s" repeatCount="indefinite"/>
    </path>
    <path d="M25 15 L26 16 L27.5 14.5" stroke="white" stroke-width="0.8" fill="none">
      <animateTransform attributeName="transform" type="rotate" values="90 16 16;450 16 16" dur="20s" repeatCount="indefinite"/>
    </path>
    <path d="M15 25 L16 26 L17.5 24.5" stroke="white" stroke-width="0.8" fill="none">
      <animateTransform attributeName="transform" type="rotate" values="180 16 16;540 16 16" dur="20s" repeatCount="indefinite"/>
    </path>
    <path d="M5 15 L6 16 L7.5 14.5" stroke="white" stroke-width="0.8" fill="none">
      <animateTransform attributeName="transform" type="rotate" values="270 16 16;630 16 16" dur="20s" repeatCount="indefinite"/>
    </path>
  </g>
</svg>