<svg width="16" height="16" viewBox="0 0 16 16" fill="none" xmlns="http://www.w3.org/2000/svg">
  <!-- QA Intelligence favicon 16x16 - Elegant circular design -->
  <defs>
    <radialGradient id="primaryRadial16" cx="50%" cy="50%" r="60%">
      <stop offset="0%" style="stop-color:#8b5cf6;stop-opacity:1" />
      <stop offset="100%" style="stop-color:#4f46e5;stop-opacity:1" />
    </radialGradient>
    
    <radialGradient id="glowGrad16" cx="50%" cy="50%" r="70%">
      <stop offset="0%" style="stop-color:#10b981;stop-opacity:0.6" />
      <stop offset="100%" style="stop-color:#06d6a0;stop-opacity:0.1" />
    </radialGradient>
  </defs>
  
  <!-- Main circular background -->
  <circle cx="8" cy="8" r="8" fill="url(#primaryRadial16)"/>
  
  <!-- Inner glow -->
  <circle cx="8" cy="8" r="7" fill="url(#glowGrad16)" opacity="0.4"/>
  
  <!-- Simplified brain outline -->
  <path d="M5 7c0-1.2 0.8-2 2-2 0.4 0 0.8 0.2 1.2 0.4 0.4-0.2 0.8-0.4 1.2-0.4 1.2 0 2 0.8 2 2 0 0.4-0.2 0.8-0.4 1.2 0.2 0.4 0.4 0.8 0.4 1.2 0 1.2-0.8 2-2 2-0.4 0-0.8-0.2-1.2-0.4-0.4 0.2-0.8 0.4-1.2 0.4-1.2 0-2-0.8-2-2 0-0.4 0.2-0.8 0.4-1.2-0.2-0.4-0.4-0.8-0.4-1.2z" 
        fill="none" stroke="rgba(255,255,255,0.8)" stroke-width="0.8"/>
  
  <!-- Curved neural connections -->
  <path d="M6.2 6.8 Q8 7.8 9.8 6.8" stroke="rgba(255,255,255,0.5)" stroke-width="0.5" fill="none"/>
  <path d="M6.2 8 Q8 9 9.8 8" stroke="rgba(255,255,255,0.5)" stroke-width="0.5" fill="none"/>
  <path d="M6.2 9.2 Q8 10.2 9.8 9.2" stroke="rgba(255,255,255,0.5)" stroke-width="0.5" fill="none"/>
  
  <!-- Central Q -->
  <circle cx="8" cy="8" r="2.5" fill="rgba(255,255,255,0.08)" stroke="rgba(255,255,255,0.25)" stroke-width="0.5"/>
  <text x="8" y="9.5" text-anchor="middle" font-family="system-ui" font-size="4.5" font-weight="600" fill="white" opacity="0.95">Q</text>
  
  <!-- Simplified orbital indicators -->
  <circle cx="8" cy="3" r="0.8" fill="#fbbf24" opacity="0.8"/>
  <circle cx="13" cy="8" r="0.8" fill="#10b981" opacity="0.8"/>
  <circle cx="8" cy="13" r="0.8" fill="#fbbf24" opacity="0.8"/>
  <circle cx="3" cy="8" r="0.8" fill="#10b981" opacity="0.8"/>
</svg>